<svg xmlns="http://www.w3.org/2000/svg" xmlns:xlink="http://www.w3.org/1999/xlink" width="500" zoomAndPan="magnify" viewBox="0 0 375 374.999991" height="500" preserveAspectRatio="xMidYMid meet" version="1.0"><defs><g/><clipPath id="id1"><path d="M 59.644531 167.34375 L 319.894531 167.34375 L 319.894531 211.59375 L 59.644531 211.59375 Z M 59.644531 167.34375 " clip-rule="nonzero"/></clipPath></defs><g fill="#000000" fill-opacity="1"><g transform="translate(55.721514, 253.874983)"><g><path d="M 49.121094 -95.992188 C 49.121094 -93.257812 49.511719 -92.28125 51.953125 -92.28125 L 69.433594 -92.28125 C 72.558594 -92.28125 73.242188 -93.257812 73.242188 -95.992188 L 73.242188 -101.558594 C 73.242188 -123.140625 58.789062 -137.203125 38.574219 -137.203125 C 24.902344 -137.203125 3.90625 -127.535156 3.90625 -102.144531 C 3.90625 -79.78125 13.085938 -73.339844 33.496094 -56.738281 C 45.507812 -46.972656 50.585938 -42.578125 50.585938 -33.105469 C 50.585938 -25.976562 45.605469 -21.484375 39.453125 -21.484375 C 34.472656 -21.484375 28.320312 -24.609375 28.320312 -34.375 L 28.320312 -38.769531 C 28.320312 -41.699219 27.734375 -42.773438 25 -42.773438 L 7.226562 -42.773438 C 4.492188 -42.773438 3.90625 -41.40625 3.90625 -38.085938 L 3.90625 -32.910156 C 3.90625 -14.550781 15.722656 2.148438 39.257812 2.148438 C 60.839844 2.148438 75.292969 -13.476562 75.292969 -31.738281 C 75.292969 -56.445312 60.742188 -67.089844 42.480469 -81.246094 C 33.789062 -87.984375 28.027344 -92.183594 28.027344 -101.460938 C 28.027344 -110.347656 33.691406 -113.765625 38.574219 -113.765625 C 45.605469 -113.765625 49.121094 -108.199219 49.121094 -101.460938 Z M 49.121094 -95.992188 "/></g></g></g><g fill="#000000" fill-opacity="1"><g transform="translate(143.844569, 253.874983)"><g><path d="M 75.878906 -102.828125 C 75.878906 -120.015625 65.039062 -137.203125 41.308594 -137.203125 C 20.019531 -137.203125 4.882812 -122.652344 4.882812 -103.316406 L 4.882812 -31.738281 C 4.882812 -10.546875 21.679688 2.148438 41.308594 2.148438 C 60.839844 2.148438 76.464844 -10.546875 76.464844 -31.738281 L 76.464844 -45.019531 C 76.464844 -47.949219 75.488281 -48.632812 73.242188 -48.632812 L 54.980469 -48.632812 C 52.734375 -48.632812 52.050781 -47.753906 52.050781 -44.824219 L 52.050781 -33.203125 C 52.050781 -27.050781 48.632812 -21.386719 41.503906 -21.386719 C 34.765625 -21.386719 30.859375 -27.050781 30.859375 -33.203125 L 30.859375 -102.242188 C 30.859375 -108.394531 35.15625 -113.765625 41.503906 -113.765625 C 47.949219 -113.765625 51.5625 -107.808594 51.5625 -102.046875 L 51.5625 -92.964844 C 51.5625 -90.230469 52.246094 -89.058594 54.589844 -89.058594 L 72.753906 -89.058594 C 75.292969 -89.058594 75.878906 -90.328125 75.878906 -93.355469 Z M 75.878906 -102.828125 "/></g></g></g><g fill="#000000" fill-opacity="1"><g transform="translate(234.018347, 253.874983)"><g><path d="M 32.226562 -101.949219 C 32.226562 -108.101562 36.035156 -113.667969 42.675781 -113.667969 C 49.21875 -113.667969 53.027344 -108.101562 53.027344 -101.949219 L 53.027344 -54.980469 L 32.226562 -54.980469 Z M 79.097656 -103.414062 C 79.097656 -122.164062 62.109375 -137.300781 42.578125 -137.300781 C 23.046875 -137.300781 6.152344 -122.164062 6.152344 -103.414062 L 6.152344 -3.808594 C 6.152344 -1.757812 7.226562 0 8.691406 0 L 29.296875 0 C 31.640625 0 32.226562 -1.660156 32.226562 -3.808594 L 32.226562 -32.226562 L 53.027344 -32.226562 L 53.027344 -3.90625 C 53.027344 -1.855469 54.199219 0 56.152344 0 L 75.976562 0 C 78.21875 0 79.097656 -1.953125 79.097656 -3.90625 Z M 79.097656 -103.414062 "/></g></g></g><g clip-path="url(#id1)"><path fill="#ffffff" d="M 59.648438 167.34375 L 319.890625 167.34375 L 319.890625 211.59375 L 59.648438 211.59375 L 59.648438 167.34375 " fill-opacity="1" fill-rule="nonzero"/></g><g fill="#000000" fill-opacity="1"><g transform="translate(99.862696, 194.999987)"><g><path d="M 4.417969 -8.636719 C 4.417969 -8.390625 4.453125 -8.300781 4.675781 -8.300781 L 6.246094 -8.300781 C 6.527344 -8.300781 6.589844 -8.390625 6.589844 -8.636719 L 6.589844 -9.136719 C 6.589844 -11.078125 5.289062 -12.34375 3.46875 -12.34375 C 2.242188 -12.34375 0.351562 -11.472656 0.351562 -9.191406 C 0.351562 -7.175781 1.175781 -6.597656 3.011719 -5.105469 C 4.09375 -4.226562 4.550781 -3.832031 4.550781 -2.976562 C 4.550781 -2.335938 4.101562 -1.933594 3.550781 -1.933594 C 3.101562 -1.933594 2.546875 -2.214844 2.546875 -3.09375 L 2.546875 -3.488281 C 2.546875 -3.75 2.496094 -3.847656 2.25 -3.847656 L 0.648438 -3.847656 C 0.402344 -3.847656 0.351562 -3.726562 0.351562 -3.425781 L 0.351562 -2.960938 C 0.351562 -1.308594 1.414062 0.191406 3.53125 0.191406 C 5.472656 0.191406 6.773438 -1.210938 6.773438 -2.855469 C 6.773438 -5.078125 5.464844 -6.035156 3.820312 -7.308594 C 3.039062 -7.914062 2.519531 -8.292969 2.519531 -9.128906 C 2.519531 -9.925781 3.03125 -10.234375 3.46875 -10.234375 C 4.101562 -10.234375 4.417969 -9.734375 4.417969 -9.128906 Z M 4.417969 -8.636719 "/></g></g></g><g fill="#000000" fill-opacity="1"><g transform="translate(116.15933, 194.999987)"><g><path d="M 6.828125 -9.25 C 6.828125 -10.796875 5.851562 -12.34375 3.714844 -12.34375 C 1.800781 -12.34375 0.4375 -11.035156 0.4375 -9.296875 L 0.4375 -2.855469 C 0.4375 -0.949219 1.949219 0.191406 3.714844 0.191406 C 5.472656 0.191406 6.878906 -0.949219 6.878906 -2.855469 L 6.878906 -4.050781 C 6.878906 -4.3125 6.792969 -4.375 6.589844 -4.375 L 4.945312 -4.375 C 4.742188 -4.375 4.683594 -4.296875 4.683594 -4.03125 L 4.683594 -2.988281 C 4.683594 -2.433594 4.375 -1.925781 3.734375 -1.925781 C 3.128906 -1.925781 2.777344 -2.433594 2.777344 -2.988281 L 2.777344 -9.199219 C 2.777344 -9.75 3.164062 -10.234375 3.734375 -10.234375 C 4.3125 -10.234375 4.640625 -9.699219 4.640625 -9.179688 L 4.640625 -8.363281 C 4.640625 -8.117188 4.699219 -8.011719 4.910156 -8.011719 L 6.546875 -8.011719 C 6.773438 -8.011719 6.828125 -8.125 6.828125 -8.398438 Z M 6.828125 -9.25 "/></g></g></g><g fill="#000000" fill-opacity="1"><g transform="translate(132.640419, 194.999987)"><g><path d="M 2.898438 -9.171875 C 2.898438 -9.726562 3.242188 -10.226562 3.839844 -10.226562 C 4.429688 -10.226562 4.769531 -9.726562 4.769531 -9.171875 L 4.769531 -4.945312 L 2.898438 -4.945312 Z M 7.117188 -9.304688 C 7.117188 -10.992188 5.585938 -12.351562 3.832031 -12.351562 C 2.074219 -12.351562 0.554688 -10.992188 0.554688 -9.304688 L 0.554688 -0.34375 C 0.554688 -0.15625 0.648438 0 0.78125 0 L 2.636719 0 C 2.847656 0 2.898438 -0.148438 2.898438 -0.34375 L 2.898438 -2.898438 L 4.769531 -2.898438 L 4.769531 -0.351562 C 4.769531 -0.167969 4.875 0 5.050781 0 L 6.835938 0 C 7.035156 0 7.117188 -0.175781 7.117188 -0.351562 Z M 7.117188 -9.304688 "/></g></g></g><g fill="#000000" fill-opacity="1"><g transform="translate(162.923672, 194.999987)"><g><path d="M 6.828125 -9.25 C 6.828125 -10.796875 5.851562 -12.34375 3.714844 -12.34375 C 1.800781 -12.34375 0.4375 -11.035156 0.4375 -9.296875 L 0.4375 -2.855469 C 0.4375 -0.949219 1.949219 0.191406 3.714844 0.191406 C 5.472656 0.191406 6.878906 -0.949219 6.878906 -2.855469 L 6.878906 -4.050781 C 6.878906 -4.3125 6.792969 -4.375 6.589844 -4.375 L 4.945312 -4.375 C 4.742188 -4.375 4.683594 -4.296875 4.683594 -4.03125 L 4.683594 -2.988281 C 4.683594 -2.433594 4.375 -1.925781 3.734375 -1.925781 C 3.128906 -1.925781 2.777344 -2.433594 2.777344 -2.988281 L 2.777344 -9.199219 C 2.777344 -9.75 3.164062 -10.234375 3.734375 -10.234375 C 4.3125 -10.234375 4.640625 -9.699219 4.640625 -9.179688 L 4.640625 -8.363281 C 4.640625 -8.117188 4.699219 -8.011719 4.910156 -8.011719 L 6.546875 -8.011719 C 6.773438 -8.011719 6.828125 -8.125 6.828125 -8.398438 Z M 6.828125 -9.25 "/></g></g></g><g fill="#000000" fill-opacity="1"><g transform="translate(179.40476, 194.999987)"><g><path d="M 7.003906 -9.296875 C 7.003906 -11.210938 5.472656 -12.34375 3.707031 -12.34375 C 1.949219 -12.34375 0.4375 -11.203125 0.4375 -9.296875 L 0.4375 -2.855469 C 0.4375 -0.992188 1.949219 0.191406 3.707031 0.191406 C 5.472656 0.191406 7.003906 -0.949219 7.003906 -2.855469 Z M 3.726562 -10.234375 C 4.3125 -10.234375 4.664062 -9.726562 4.664062 -9.164062 L 4.664062 -2.925781 C 4.664062 -2.371094 4.3125 -1.925781 3.707031 -1.925781 C 3.109375 -1.925781 2.777344 -2.425781 2.777344 -2.976562 L 2.777344 -9.164062 C 2.777344 -9.726562 3.128906 -10.234375 3.726562 -10.234375 Z M 3.726562 -10.234375 "/></g></g></g><g fill="#000000" fill-opacity="1"><g transform="translate(196.11422, 194.999987)"><g><path d="M 8.996094 -0.351562 C 8.996094 -0.167969 9.09375 0 9.277344 0 L 11.0625 0 C 11.253906 0 11.332031 -0.175781 11.332031 -0.351562 L 11.332031 -9.304688 C 11.332031 -10.992188 9.804688 -12.351562 8.046875 -12.351562 C 7.257812 -12.351562 6.511719 -12.078125 5.9375 -11.625 C 5.359375 -12.078125 4.613281 -12.351562 3.832031 -12.351562 C 2.074219 -12.351562 0.554688 -10.992188 0.554688 -9.304688 L 0.554688 -0.34375 C 0.554688 -0.15625 0.660156 0 0.78125 0 L 2.636719 0 C 2.847656 0 2.898438 -0.148438 2.898438 -0.34375 L 2.898438 -9.171875 C 2.898438 -9.726562 3.242188 -10.226562 3.839844 -10.226562 C 4.429688 -10.226562 4.769531 -9.726562 4.769531 -9.171875 L 4.769531 -0.34375 C 4.769531 -0.15625 4.882812 0 5.007812 0 L 6.863281 0 C 7.070312 0 7.117188 -0.148438 7.117188 -0.332031 L 7.117188 -9.207031 C 7.132812 -9.742188 7.476562 -10.226562 8.054688 -10.226562 C 8.644531 -10.226562 8.996094 -9.726562 8.996094 -9.171875 Z M 8.996094 -0.351562 "/></g></g></g><g fill="#000000" fill-opacity="1"><g transform="translate(217.268051, 194.999987)"><g><path d="M 4.859375 -6.175781 C 4.859375 -5.578125 4.464844 -5.128906 3.855469 -5.128906 L 2.96875 -5.128906 L 2.96875 -10.023438 L 3.847656 -10.023438 C 4.453125 -10.023438 4.859375 -9.59375 4.859375 -8.960938 Z M 0.632812 -0.332031 C 0.632812 -0.121094 0.730469 0 0.929688 0 L 2.679688 0 C 2.882812 0 2.96875 -0.121094 2.96875 -0.332031 L 2.96875 -3.011719 L 4.03125 -3.011719 C 5.84375 -3.011719 7.203125 -4.429688 7.203125 -6.195312 L 7.203125 -9.003906 C 7.203125 -10.769531 5.84375 -12.160156 4.03125 -12.160156 L 0.929688 -12.160156 C 0.746094 -12.160156 0.632812 -12.027344 0.632812 -11.816406 Z M 0.632812 -0.332031 "/></g></g></g><g fill="#000000" fill-opacity="1"><g transform="translate(233.942377, 194.999987)"><g><path d="M 2.898438 -9.171875 C 2.898438 -9.726562 3.242188 -10.226562 3.839844 -10.226562 C 4.429688 -10.226562 4.769531 -9.726562 4.769531 -9.171875 L 4.769531 -4.945312 L 2.898438 -4.945312 Z M 7.117188 -9.304688 C 7.117188 -10.992188 5.585938 -12.351562 3.832031 -12.351562 C 2.074219 -12.351562 0.554688 -10.992188 0.554688 -9.304688 L 0.554688 -0.34375 C 0.554688 -0.15625 0.648438 0 0.78125 0 L 2.636719 0 C 2.847656 0 2.898438 -0.148438 2.898438 -0.34375 L 2.898438 -2.898438 L 4.769531 -2.898438 L 4.769531 -0.351562 C 4.769531 -0.167969 4.875 0 5.050781 0 L 6.835938 0 C 7.035156 0 7.117188 -0.175781 7.117188 -0.351562 Z M 7.117188 -9.304688 "/></g></g></g><g fill="#000000" fill-opacity="1"><g transform="translate(250.880204, 194.999987)"><g><path d="M 6.835938 0 C 7.027344 0 7.117188 -0.175781 7.117188 -0.351562 L 7.117188 -9.304688 C 7.117188 -10.992188 5.585938 -12.351562 3.832031 -12.351562 C 2.074219 -12.351562 0.554688 -10.992188 0.554688 -9.304688 L 0.554688 -0.34375 C 0.554688 -0.15625 0.648438 0 0.78125 0 L 2.636719 0 C 2.835938 0 2.898438 -0.148438 2.898438 -0.34375 L 2.898438 -9.171875 C 2.898438 -9.726562 3.242188 -10.226562 3.839844 -10.226562 C 4.429688 -10.226562 4.769531 -9.726562 4.769531 -9.171875 L 4.769531 -0.351562 C 4.769531 -0.167969 4.875 0 5.050781 0 Z M 6.835938 0 "/></g></g></g><g fill="#000000" fill-opacity="1"><g transform="translate(267.818032, 194.999987)"><g><path d="M 4.8125 -4.882812 C 6.027344 -5.28125 6.933594 -6.289062 6.933594 -7.757812 L 6.933594 -11.964844 C 6.933594 -12.089844 6.863281 -12.160156 6.746094 -12.160156 L 4.777344 -12.160156 C 4.648438 -12.160156 4.585938 -12.070312 4.585938 -11.957031 L 4.585938 -7.828125 C 4.585938 -7.273438 4.253906 -6.828125 3.644531 -6.828125 C 3.039062 -6.828125 2.714844 -7.328125 2.714844 -7.878906 L 2.714844 -11.972656 C 2.714844 -12.070312 2.636719 -12.160156 2.496094 -12.160156 L 0.5625 -12.160156 C 0.429688 -12.160156 0.378906 -12.070312 0.378906 -11.957031 L 0.367188 -7.757812 C 0.367188 -6.324219 1.265625 -5.296875 2.476562 -4.894531 L 2.476562 -0.34375 C 2.476562 -0.121094 2.554688 0 2.742188 0 L 4.558594 0 C 4.742188 0 4.8125 -0.121094 4.8125 -0.34375 Z M 4.8125 -4.882812 "/></g></g></g><path stroke-linecap="butt" transform="matrix(1.49986, 0, 0, 1.5, 61.743941, 168.092773)" fill="none" stroke-linejoin="miter" d="M -0.00116927 0.000651359 L 167.519682 0.000651359 " stroke="#000000" stroke-width="1" stroke-opacity="1" stroke-miterlimit="4"/><path stroke-linecap="butt" transform="matrix(1.500763, 0, 0, 1.5, 59.645242, 210.657217)" fill="none" stroke-linejoin="miter" d="M -0.000473715 -0.000644378 L 168.9188 -0.000644378 " stroke="#000000" stroke-width="1" stroke-opacity="1" stroke-miterlimit="4"/></svg>